<svg version="1.1" id="Layer_1" xmlns="http://www.w3.org/2000/svg" xmlns:xlink="http://www.w3.org/1999/xlink" x="0px" y="0px"
	 width="100%" viewBox="0 0 1280 720" enable-background="new 0 0 1280 720" xml:space="preserve">
<path fill="#000000" opacity="1.000000" stroke="none" 
	d="
M833.000000,721.000000 
	C555.367920,721.000000 278.235901,721.000000 1.051915,721.000000 
	C1.051915,481.064575 1.051915,241.129166 1.051915,1.096869 
	C427.548798,1.096869 854.097656,1.096869 1280.823242,1.096869 
	C1280.823242,240.999893 1280.823242,480.999939 1280.823242,721.000000 
	C1131.795776,721.000000 982.647888,721.000000 833.000000,721.000000 
M833.945984,377.378754 
	C833.963501,369.715424 833.906494,362.050964 834.021912,354.389130 
	C834.116577,348.103455 837.452026,343.930145 843.498230,343.086731 
	C848.540955,342.383270 853.680420,342.069489 858.767029,342.157898 
	C860.437439,342.186951 862.739014,343.620026 863.618103,345.089447 
	C867.996582,352.407959 871.944824,359.982239 876.148926,367.407379 
	C879.061279,372.551178 881.006836,379.583801 885.465881,382.136322 
	C890.003845,384.734039 897.091431,382.878754 903.062622,382.965759 
	C903.198181,382.967743 903.335083,382.879578 903.858826,382.702332 
	C896.097534,368.516296 888.366272,354.385071 880.747803,340.459991 
	C881.475708,339.715942 881.661499,339.377747 881.939331,339.263336 
	C897.140320,333.003967 900.974609,320.233734 898.712830,308.099060 
	C895.734253,292.118439 883.572388,284.279205 869.760498,284.063385 
	C847.955261,283.722626 826.143250,283.710876 804.334229,283.725708 
	C764.345886,283.752930 724.341187,283.258911 684.376770,284.285278 
	C666.002991,284.757172 655.986450,300.945343 657.222900,315.242523 
	C658.551208,330.601837 672.090149,341.973053 687.714844,341.998932 
	C697.879944,342.015778 708.046021,341.911804 718.209717,342.031006 
	C726.278687,342.125641 730.682007,346.958405 731.144897,354.514954 
	C731.539124,360.951691 724.976013,366.245026 718.076721,366.154572 
	C689.585938,365.781097 661.087402,365.995850 632.591675,366.008301 
	C631.150635,366.008942 629.709595,366.138672 628.283630,366.207550 
	C628.283630,371.950989 628.283630,377.352509 628.283630,382.991821 
	C659.038696,382.991821 689.518005,383.428589 719.976379,382.819885 
	C736.904968,382.481567 750.824158,367.560181 747.060303,348.457153 
	C744.701111,336.483398 732.780945,326.009918 720.594604,326.002075 
	C710.429443,325.995514 700.263733,326.069763 690.099365,325.977448 
	C681.150574,325.896179 674.394104,321.002594 673.993958,314.525726 
	C673.444763,305.639282 679.261719,300.046753 689.291748,300.015259 
	C706.622314,299.960815 723.953125,300.001526 741.283875,300.002075 
	C750.069153,300.002380 758.854431,300.002136 768.064697,300.002136 
	C768.064697,327.827667 768.064697,355.227875 768.064697,382.746277 
	C773.897522,382.746277 779.295532,382.746277 785.108276,382.746277 
	C785.108276,355.091003 785.108276,327.688843 785.108276,300.155487 
	C813.156616,300.155487 840.786804,300.147186 868.416992,300.185120 
	C869.549744,300.186676 870.683655,300.614197 871.813965,300.857513 
	C879.308411,302.470917 882.281860,306.499359 882.028625,314.689270 
	C881.853394,320.355377 878.274414,324.274933 871.424561,324.896545 
	C863.018494,325.659363 854.528137,325.445587 846.102478,326.049194 
	C832.660767,327.012115 822.553284,332.006195 819.491699,345.435272 
	C816.747009,357.474487 817.132507,370.227325 816.123474,382.835175 
	C822.873108,382.835175 828.149536,382.835175 833.748474,382.835175 
	C833.818542,381.250977 833.882629,379.800568 833.945984,377.378754 
M449.261536,283.996094 
	C436.644562,283.996094 424.027588,283.996094 411.209106,283.996094 
	C411.209106,289.478851 411.209106,294.546875 411.209106,300.002716 
	C418.876038,300.002716 426.334961,299.873291 433.787018,300.043121 
	C439.896088,300.182343 446.152039,299.932037 452.071045,301.162231 
	C466.757507,304.214691 480.634277,316.696838 478.133301,337.932007 
	C476.415283,352.519623 462.339050,365.787476 446.800476,365.965729 
	C428.142334,366.179779 409.480682,366.086975 390.820557,366.126099 
	C389.046448,366.129822 387.272308,366.126617 385.473938,366.126617 
	C385.473938,372.092896 385.473938,377.474060 385.473938,382.012085 
	C407.798370,382.012085 429.832397,383.181000 451.685242,381.691376 
	C474.666168,380.124847 492.887665,361.781494 494.901154,337.141144 
	C497.152771,309.586456 478.025543,287.294708 449.261536,283.996094 
M590.535095,306.001404 
	C573.716431,331.500183 556.897766,356.998993 539.742432,383.008118 
	C545.900940,383.008118 551.222717,383.241058 556.502686,382.873474 
	C558.199890,382.755310 560.377258,381.448486 561.335632,380.016602 
	C575.989136,358.122467 590.397156,336.063843 605.074951,314.186188 
	C607.810059,310.109497 611.165039,306.312103 614.815308,303.033020 
	C617.340820,300.764343 620.424683,298.724365 624.598816,300.805817 
	C628.615112,302.808533 627.971497,306.074860 627.978394,309.288147 
	C628.015137,326.398529 627.995728,343.509003 627.995728,360.797394 
	C633.672241,360.797394 638.918762,360.797394 644.387573,360.797394 
	C644.387573,341.484802 644.818115,322.365845 644.254089,303.276276 
	C643.786560,287.453339 628.865479,280.627960 614.268616,284.981750 
	C603.388367,288.227020 596.837830,296.439697 590.535095,306.001404 
M386.777618,360.992462 
	C391.726501,360.992462 396.675385,360.992462 401.985931,360.992462 
	C401.985931,341.308655 402.429840,322.024963 401.809540,302.775604 
	C401.469940,292.238342 391.709412,284.039001 381.057922,284.045105 
	C367.545929,284.052856 358.135132,291.405823 351.033997,302.086151 
	C333.902496,327.852417 316.937805,353.729645 299.913971,379.567444 
	C299.259186,380.561218 298.688690,381.610535 297.858704,383.003601 
	C303.379578,383.003601 308.224152,382.749878 313.026855,383.089081 
	C316.466858,383.332092 318.262512,381.946869 320.054382,379.190460 
	C334.671936,356.704651 349.319702,334.235657 364.290344,311.984955 
	C366.896088,308.112030 370.674591,304.695435 374.602631,302.124023 
	C380.290222,298.400757 385.072845,301.428040 385.086090,308.187500 
	C385.117462,324.170654 385.076538,340.153961 385.129639,356.137024 
	C385.134857,357.714447 385.587738,359.290344 386.777618,360.992462 
M971.430664,383.003174 
	C973.199463,383.003174 974.968323,383.003174 976.996033,383.003174 
	C976.996033,355.850861 977.205627,329.237823 976.852905,302.632233 
	C976.761475,295.731171 972.593506,290.507050 966.485413,286.896637 
	C954.625244,279.886200 938.534058,284.738037 930.366577,296.824158 
	C917.956177,315.188843 906.955994,334.509064 895.507874,353.514465 
	C894.891602,354.537598 895.255066,356.607727 895.870789,357.835144 
	C898.239563,362.557648 900.896851,367.135498 903.664795,372.163788 
	C904.908142,370.245331 905.938660,368.762878 906.860840,367.215820 
	C917.197998,349.873413 927.364624,332.426331 937.950134,315.237061 
	C940.656677,310.842072 944.448120,307.023438 948.168457,303.375885 
	C950.750488,300.844299 954.595520,299.428528 957.570435,302.181946 
	C959.393555,303.869354 960.493713,307.199402 960.533142,309.812653 
	C960.789124,326.790863 960.664917,343.774811 960.665100,360.756866 
	C960.665222,368.059540 960.665161,375.362183 960.665161,383.002960 
	C964.194702,383.002960 967.331604,383.002960 971.430664,383.003174 
z"/>
<path fill="#E4E4E4" opacity="1.000000" stroke="none" 
	d="
M833.946350,377.864441 
	C833.882629,379.800568 833.818542,381.250977 833.748474,382.835175 
	C828.149536,382.835175 822.873108,382.835175 816.123474,382.835175 
	C817.132507,370.227325 816.747009,357.474487 819.491699,345.435272 
	C822.553284,332.006195 832.660767,327.012115 846.102478,326.049194 
	C854.528137,325.445587 863.018494,325.659363 871.424561,324.896545 
	C878.274414,324.274933 881.853394,320.355377 882.028625,314.689270 
	C882.281860,306.499359 879.308411,302.470917 871.813965,300.857513 
	C870.683655,300.614197 869.549744,300.186676 868.416992,300.185120 
	C840.786804,300.147186 813.156616,300.155487 785.108276,300.155487 
	C785.108276,327.688843 785.108276,355.091003 785.108276,382.746277 
	C779.295532,382.746277 773.897522,382.746277 768.064697,382.746277 
	C768.064697,355.227875 768.064697,327.827667 768.064697,300.002136 
	C758.854431,300.002136 750.069153,300.002380 741.283875,300.002075 
	C723.953125,300.001526 706.622314,299.960815 689.291748,300.015259 
	C679.261719,300.046753 673.444763,305.639282 673.993958,314.525726 
	C674.394104,321.002594 681.150574,325.896179 690.099365,325.977448 
	C700.263733,326.069763 710.429443,325.995514 720.594604,326.002075 
	C732.780945,326.009918 744.701111,336.483398 747.060303,348.457153 
	C750.824158,367.560181 736.904968,382.481567 719.976379,382.819885 
	C689.518005,383.428589 659.038696,382.991821 628.283630,382.991821 
	C628.283630,377.352509 628.283630,371.950989 628.283630,366.207550 
	C629.709595,366.138672 631.150635,366.008942 632.591675,366.008301 
	C661.087402,365.995850 689.585938,365.781097 718.076721,366.154572 
	C724.976013,366.245026 731.539124,360.951691 731.144897,354.514954 
	C730.682007,346.958405 726.278687,342.125641 718.209717,342.031006 
	C708.046021,341.911804 697.879944,342.015778 687.714844,341.998932 
	C672.090149,341.973053 658.551208,330.601837 657.222900,315.242523 
	C655.986450,300.945343 666.002991,284.757172 684.376770,284.285278 
	C724.341187,283.258911 764.345886,283.752930 804.334229,283.725708 
	C826.143250,283.710876 847.955261,283.722626 869.760498,284.063385 
	C883.572388,284.279205 895.734253,292.118439 898.712830,308.099060 
	C900.974609,320.233734 897.140320,333.003967 881.939331,339.263336 
	C881.661499,339.377747 881.475708,339.715942 880.747803,340.459991 
	C888.366272,354.385071 896.097534,368.516296 903.858826,382.702332 
	C903.335083,382.879578 903.198181,382.967743 903.062622,382.965759 
	C897.091431,382.878754 890.003845,384.734039 885.465881,382.136322 
	C881.006836,379.583801 879.061279,372.551178 876.148926,367.407379 
	C871.944824,359.982239 867.996582,352.407959 863.618103,345.089447 
	C862.739014,343.620026 860.437439,342.186951 858.767029,342.157898 
	C853.680420,342.069489 848.540955,342.383270 843.498230,343.086731 
	C837.452026,343.930145 834.116577,348.103455 834.021912,354.389130 
	C833.906494,362.050964 833.963501,369.715424 833.946350,377.864441 
z"/>
<path fill="#E3E3E3" opacity="1.000000" stroke="none" 
	d="
M449.730225,283.999054 
	C478.025543,287.294708 497.152771,309.586456 494.901154,337.141144 
	C492.887665,361.781494 474.666168,380.124847 451.685242,381.691376 
	C429.832397,383.181000 407.798370,382.012085 385.473938,382.012085 
	C385.473938,377.474060 385.473938,372.092896 385.473938,366.126617 
	C387.272308,366.126617 389.046448,366.129822 390.820557,366.126099 
	C409.480682,366.086975 428.142334,366.179779 446.800476,365.965729 
	C462.339050,365.787476 476.415283,352.519623 478.133301,337.932007 
	C480.634277,316.696838 466.757507,304.214691 452.071045,301.162231 
	C446.152039,299.932037 439.896088,300.182343 433.787018,300.043121 
	C426.334961,299.873291 418.876038,300.002716 411.209106,300.002716 
	C411.209106,294.546875 411.209106,289.478851 411.209106,283.996094 
	C424.027588,283.996094 436.644562,283.996094 449.730225,283.999054 
z"/>
<path fill="#E2E2E2" opacity="1.000000" stroke="none" 
	d="
M590.768677,305.722717 
	C596.837830,296.439697 603.388367,288.227020 614.268616,284.981750 
	C628.865479,280.627960 643.786560,287.453339 644.254089,303.276276 
	C644.818115,322.365845 644.387573,341.484802 644.387573,360.797394 
	C638.918762,360.797394 633.672241,360.797394 627.995728,360.797394 
	C627.995728,343.509003 628.015137,326.398529 627.978394,309.288147 
	C627.971497,306.074860 628.615112,302.808533 624.598816,300.805817 
	C620.424683,298.724365 617.340820,300.764343 614.815308,303.033020 
	C611.165039,306.312103 607.810059,310.109497 605.074951,314.186188 
	C590.397156,336.063843 575.989136,358.122467 561.335632,380.016602 
	C560.377258,381.448486 558.199890,382.755310 556.502686,382.873474 
	C551.222717,383.241058 545.900940,383.008118 539.742432,383.008118 
	C556.897766,356.998993 573.716431,331.500183 590.768677,305.722717 
z"/>
<path fill="#E3E3E3" opacity="1.000000" stroke="none" 
	d="
M386.305237,360.929718 
	C385.587738,359.290344 385.134857,357.714447 385.129639,356.137024 
	C385.076538,340.153961 385.117462,324.170654 385.086090,308.187500 
	C385.072845,301.428040 380.290222,298.400757 374.602631,302.124023 
	C370.674591,304.695435 366.896088,308.112030 364.290344,311.984955 
	C349.319702,334.235657 334.671936,356.704651 320.054382,379.190460 
	C318.262512,381.946869 316.466858,383.332092 313.026855,383.089081 
	C308.224152,382.749878 303.379578,383.003601 297.858704,383.003601 
	C298.688690,381.610535 299.259186,380.561218 299.913971,379.567444 
	C316.937805,353.729645 333.902496,327.852417 351.033997,302.086151 
	C358.135132,291.405823 367.545929,284.052856 381.057922,284.045105 
	C391.709412,284.039001 401.469940,292.238342 401.809540,302.775604 
	C402.429840,322.024963 401.985931,341.308655 401.985931,360.992462 
	C396.675385,360.992462 391.726501,360.992462 386.305237,360.929718 
z"/>
<path fill="#E4E4E4" opacity="1.000000" stroke="none" 
	d="
M970.949585,383.003052 
	C967.331604,383.002960 964.194702,383.002960 960.665161,383.002960 
	C960.665161,375.362183 960.665222,368.059540 960.665100,360.756866 
	C960.664917,343.774811 960.789124,326.790863 960.533142,309.812653 
	C960.493713,307.199402 959.393555,303.869354 957.570435,302.181946 
	C954.595520,299.428528 950.750488,300.844299 948.168457,303.375885 
	C944.448120,307.023438 940.656677,310.842072 937.950134,315.237061 
	C927.364624,332.426331 917.197998,349.873413 906.860840,367.215820 
	C905.938660,368.762878 904.908142,370.245331 903.664795,372.163788 
	C900.896851,367.135498 898.239563,362.557648 895.870789,357.835144 
	C895.255066,356.607727 894.891602,354.537598 895.507874,353.514465 
	C906.955994,334.509064 917.956177,315.188843 930.366577,296.824158 
	C938.534058,284.738037 954.625244,279.886200 966.485413,286.896637 
	C972.593506,290.507050 976.761475,295.731171 976.852905,302.632233 
	C977.205627,329.237823 976.996033,355.850861 976.996033,383.003174 
	C974.968323,383.003174 973.199463,383.003174 970.949585,383.003052 
z"/>
</svg>