<svg width="1440" height="393" viewBox="0 0 1440 393" fill="none" xmlns="http://www.w3.org/2000/svg">
<g clip-path="url(#clip0_24_6051)">
<g clip-path="url(#clip1_24_6051)">
<path d="M917.707 63.3606H784.288V196.78H917.707V63.3606Z" stroke="#353535" stroke-width="0.558239"/>
<path d="M1319.64 196.78H1186.22V330.199H1319.64V196.78Z" stroke="#353535" stroke-width="0.558239"/>
<path d="M1453.62 62.8022H1320.2V196.221H1453.62V62.8022Z" stroke="#353535" stroke-width="0.558239"/>
<path d="M1051.68 196.779H919.217L1051.68 63.7573V196.779Z" stroke="#353535" stroke-width="0.558239"/>
<path d="M1186.22 196.779H1319.8L1186.22 63.7534V196.779Z" stroke="#353535" stroke-width="0.558239"/>
<path d="M1163.61 63.3606H1185.66V196.78H1052.24V174.729C1052.24 113.222 1102.1 63.3606 1163.61 63.3606Z" stroke="#353535" stroke-width="0.558239"/>
<path d="M1185.66 308.148V330.199H1052.24V196.78H1074.29C1135.8 196.78 1185.66 246.641 1185.66 308.148Z" stroke="#353535" stroke-width="0.558239"/>
</g>
<g clip-path="url(#clip2_24_6051)">
<path d="M782.325 196.448H1051.96" stroke="white" stroke-width="0.558249" stroke-miterlimit="10" stroke-linecap="round" stroke-dasharray="385.19 385.19"/>
<path d="M1052.52 329.869H1319.92" stroke="white" stroke-width="0.558249" stroke-miterlimit="10" stroke-linecap="round" stroke-dasharray="385.19 385.19"/>
<path d="M1319.92 195.331H1587.88" stroke="white" stroke-width="0.558249" stroke-miterlimit="10" stroke-linecap="round" stroke-dasharray="385.19 385.19"/>
<path d="M1052.24 196.169V330.148" stroke="white" stroke-width="0.558249" stroke-miterlimit="10" stroke-linecap="round" stroke-dasharray="385.19 385.19"/>
<path d="M1320.2 195.61V330.148" stroke="white" stroke-width="0.558249" stroke-miterlimit="10" stroke-linecap="round" stroke-dasharray="385.19 385.19"/>
</g>
</g>
<g clip-path="url(#clip3_24_6051)">
<g clip-path="url(#clip4_24_6051)">
<path d="M381.639 196.78H248.22V330.199H381.639V196.78Z" stroke="#353535" stroke-width="0.558239"/>
<path d="M515.616 62.8022H382.197V196.221H515.616V62.8022Z" stroke="#353535" stroke-width="0.558239"/>
<path d="M113.685 196.779H-18.7831L113.685 63.7573V196.779Z" stroke="#353535" stroke-width="0.558239"/>
<path d="M248.22 196.779H381.8L248.22 63.7534V196.779Z" stroke="#353535" stroke-width="0.558239"/>
<path d="M783.571 196.221H649.99L783.571 329.247V196.221Z" stroke="#353535" stroke-width="0.558239"/>
<path d="M649.594 129.512V196.221H516.175V129.512C516.175 92.6691 546.041 62.8022 582.884 62.8022C619.728 62.8022 649.594 92.6691 649.594 129.512Z" stroke="#353535" stroke-width="0.558239"/>
<path d="M225.611 63.3606H247.662V196.78H114.243V174.729C114.243 113.222 164.104 63.3606 225.611 63.3606Z" stroke="#353535" stroke-width="0.558239"/>
<path d="M627.543 197.338H649.594V330.757H516.175V308.706C516.175 247.199 566.037 197.338 627.543 197.338Z" stroke="#353535" stroke-width="0.558239"/>
<path d="M247.662 308.148V330.199H114.243V196.78H136.293C197.8 196.78 247.662 246.641 247.662 308.148Z" stroke="#353535" stroke-width="0.558239"/>
<path d="M650.359 196.221L727.708 63.1483L783.432 196.221H650.359Z" stroke="#353535" stroke-width="0.558239"/>
<path d="M917.548 62.8022H784.129V196.221H917.548V62.8022Z" stroke="#353535" stroke-width="0.558239"/>
</g>
<g clip-path="url(#clip5_24_6051)">
<path d="M-155.675 196.448H113.959" stroke="white" stroke-width="0.558249" stroke-miterlimit="10" stroke-linecap="round" stroke-dasharray="385.19 385.19"/>
<path d="M114.518 329.869H381.919" stroke="white" stroke-width="0.558249" stroke-miterlimit="10" stroke-linecap="round" stroke-dasharray="385.19 385.19"/>
<path d="M381.918 195.331H649.878" stroke="white" stroke-width="0.558249" stroke-miterlimit="10" stroke-linecap="round" stroke-dasharray="385.19 385.19"/>
<path d="M114.238 196.169V330.148" stroke="white" stroke-width="0.558249" stroke-miterlimit="10" stroke-linecap="round" stroke-dasharray="385.19 385.19"/>
<path d="M382.197 195.61V330.148" stroke="white" stroke-width="0.558249" stroke-miterlimit="10" stroke-linecap="round" stroke-dasharray="385.19 385.19"/>
<path d="M784.136 61.6305V195.61" stroke="white" stroke-width="0.558249" stroke-miterlimit="10" stroke-linecap="round" stroke-dasharray="385.19 385.19"/>
<path d="M917.837 61.9099H783.857" stroke="white" stroke-width="0.558249" stroke-miterlimit="10" stroke-linecap="round" stroke-dasharray="385.19 385.19"/>
<path d="M649.638 195.224L727.234 60.8233" stroke="white" stroke-width="0.558249" stroke-miterlimit="10" stroke-linecap="round" stroke-dasharray="385.19 385.19"/>
<path d="M783.818 195.488L727.218 60.6224" stroke="white" stroke-width="0.558249" stroke-miterlimit="10" stroke-linecap="round" stroke-dasharray="385.19 385.19"/>
</g>
</g>
<defs>
<clipPath id="clip0_24_6051">
<rect width="964.654" height="393" fill="white" transform="translate(784)"/>
</clipPath>
<clipPath id="clip1_24_6051">
<rect width="1071.82" height="393" fill="white" transform="translate(784.009)"/>
</clipPath>
<clipPath id="clip2_24_6051">
<rect width="1071.84" height="471.608" fill="white" transform="translate(784 -40.1939)"/>
</clipPath>
<clipPath id="clip3_24_6051">
<rect width="964.654" height="393" fill="white" transform="translate(-154)"/>
</clipPath>
<clipPath id="clip4_24_6051">
<rect width="1071.82" height="393" fill="white" transform="translate(-153.991)"/>
</clipPath>
<clipPath id="clip5_24_6051">
<rect width="1071.84" height="471.608" fill="white" transform="translate(-154 -40.1939)"/>
</clipPath>
</defs>
</svg>
