<svg width="52" height="52" viewBox="0 0 52 52" fill="none" xmlns="http://www.w3.org/2000/svg">
<path d="M51.9999 25.9998C51.9999 11.6404 40.3593 -0.000244141 25.9999 -0.000244141C11.6405 -0.000244141 -0.00012207 11.6404 -0.00012207 25.9998C-0.00012207 40.3592 11.6405 51.9998 25.9999 51.9998C40.3593 51.9998 51.9999 40.3592 51.9999 25.9998Z" fill="#CAFF33"/>
<mask id="mask0_0_1" style="mask-type:luminance" maskUnits="userSpaceOnUse" x="13" y="13" width="25" height="25">
<path d="M37.9999 13.9998H13.9999V37.9998H37.9999V13.9998Z" fill="white"/>
</mask>
<g mask="url(#mask0_0_1)">
<path d="M36.2229 13.9998H15.7719C14.7919 13.9998 13.9999 14.7697 13.9999 15.7297V36.2698C13.9999 37.2198 14.7919 37.9998 15.7719 37.9998H36.2229C37.2029 37.9998 37.9999 37.2198 37.9999 36.2698V15.7297C37.9999 14.7697 37.2029 13.9998 36.2229 13.9998ZM21.1199 34.45H17.5579V22.9998H21.1199V34.45ZM19.3389 21.4299C18.1949 21.4299 17.2719 20.5099 17.2719 19.3699C17.2719 18.2299 18.1949 17.3098 19.3389 17.3098C20.4779 17.3098 21.4019 18.2299 21.4019 19.3699C21.4019 20.5099 20.4779 21.4299 19.3389 21.4299ZM34.4519 34.45H30.8939V28.8796C30.8939 27.5596 30.8699 25.8499 29.0419 25.8499C27.1909 25.8499 26.9089 27.2898 26.9089 28.7898V34.45H23.3559V22.9998H26.7689V24.5598H26.8159C27.2889 23.6598 28.4519 22.7097 30.1809 22.7097C33.7859 22.7097 34.4519 25.0797 34.4519 28.1697V34.45Z" fill="#262626"/>
</g>
</svg>
