<svg width="535" height="77" viewBox="0 0 535 77" fill="none" xmlns="http://www.w3.org/2000/svg">
<path fill-rule="evenodd" clip-rule="evenodd" d="M518.293 0C527.621 0 535.187 6.84923 534.996 16.5045C534.996 16.5402 534.995 16.5739 534.994 16.6053V76.5516H522.233C522.233 76.5516 522.233 20.6154 522.233 17.4294C522.233 14.2434 519.357 12.7441 517.354 12.7441C512.787 12.7441 510.393 15.3736 507.031 19.8273C503.669 24.281 476.526 66.0207 476.526 66.0207L469.528 53.2621C469.528 53.2621 490.519 20.9903 496.179 13.1147C501.839 5.23912 509.276 0 518.293 0Z" fill="#ffffff"/>
<path fill-rule="evenodd" clip-rule="evenodd" d="M451.839 13.1039L411.341 12.7954V0.121701C411.341 0.121701 441.463 -0.329843 453.042 0.506604C465.589 1.41303 474.571 10.8655 474.571 23.3324C474.571 32.8137 469.104 40.4486 460.116 43.4258L478.291 76.5203H463.599L446.118 45.2451C444.144 45.2594 442.769 45.2783 440.795 45.2451C436.408 45.1711 430.124 44.9051 426.963 48.0666C423.801 51.2281 424.128 56.331 424.166 60.2238C424.219 65.6551 424.173 71.0887 424.173 76.5203C424.173 76.5218 411.527 76.5218 411.527 76.5203V61.2707C411.527 53.3424 412.288 44.8721 418.214 38.9463C425.255 31.9057 435.516 32.5999 444.662 32.6334C451.475 32.6584 461.553 32.5123 461.553 23.3324C461.553 17.3378 457.979 13.2834 451.839 13.1039Z" fill="#ffffff"/>
<path fill-rule="evenodd" clip-rule="evenodd" d="M373.941 12.7987H349.226V0.121704H411.341V12.7987H386.625V76.3702H373.941V12.7987Z" fill="#ffffff"/>
<path fill-rule="evenodd" clip-rule="evenodd" d="M312.178 0.121704H350.506V12.8298H312.448C306.465 13.2395 301.278 16.5878 301.278 22.9215C301.278 28.8204 306.9 32.3316 312.313 32.4525C319.098 32.4525 331.93 32.4525 335.788 32.4525C347.868 32.4879 358.152 42.2864 358.152 54.5048C358.152 67.0039 348.369 76.4174 335.762 76.3701L335.758 76.3701H266.172V63.662H335.804C335.808 63.662 335.815 63.6619 335.823 63.6617C341.482 63.5431 345.472 60.1797 345.472 54.5048C345.472 48.7917 341.442 45.3467 335.749 45.1611C335.743 45.1609 335.738 45.1607 335.734 45.1606C328.397 45.1606 316.123 45.1606 312.268 45.1606C300.056 45.1263 288.599 35.529 288.599 22.9215C288.599 9.84719 299.339 0.536801 312.178 0.121704Z" fill="#ffffff"/>
<path fill-rule="evenodd" clip-rule="evenodd" d="M262.254 0.121704C271.52 0.121704 279.035 6.93488 278.846 16.5394C278.845 16.5749 278.844 16.6083 278.843 16.6396V59.8925H266.169C266.169 59.8925 266.169 20.6286 266.169 17.4594C266.169 14.2901 263.312 12.7987 261.323 12.7987C256.787 12.7987 254.408 15.4144 251.069 19.8446C247.73 24.2749 213.793 76.3702 213.793 76.3702H198.509C198.509 76.3702 234.669 21.0015 240.29 13.1674C245.912 5.33325 253.299 0.121704 262.254 0.121704Z" fill="#ffffff"/>
<path fill-rule="evenodd" clip-rule="evenodd" d="M113.124 12.676H88.0595V0.0421718C100.693 0.0421718 112.946 0.0420405 113.148 0.0421746C135.229 0.0955313 152.844 16.0218 152.715 38.1664C152.586 60.1696 135.169 76.1162 113.148 76.2168C113.02 76.217 83.0703 76.2168 68.5786 76.2168V63.583H113.123C127.757 63.4185 139.992 53.317 140.081 38.0925C140.171 22.7533 127.745 12.8439 113.124 12.676Z" fill="white"/>
<path fill-rule="evenodd" clip-rule="evenodd" d="M64.652 0C73.9088 0 81.4165 6.80657 81.227 16.4018C81.2263 16.4372 81.2255 16.4706 81.2246 16.5019V59.7128H68.5624C68.5624 59.7128 68.5624 20.4871 68.5624 17.3209C68.5624 14.1547 65.7084 12.6647 63.7209 12.6647C59.1894 12.6647 56.8133 15.2779 53.4773 19.7038C50.1414 24.1298 16.2376 76.1746 16.2376 76.1746H0.968445C0.968445 76.1746 37.093 20.8596 42.7092 13.033C48.3253 5.20649 55.7051 0 64.652 0Z" fill="white"/>
</svg>
