<svg width="22" height="21" viewBox="0 0 22 21" fill="none" xmlns="http://www.w3.org/2000/svg">
<path fill-rule="evenodd" clip-rule="evenodd" d="M0.499878 2.99976C0.499878 1.33976 1.84288 -0.000244141 3.49988 -0.000244141H4.87189C5.73189 -0.000244141 6.48189 0.589678 6.69089 1.41968L7.79587 5.8396C7.97887 6.5796 7.70587 7.34956 7.10187 7.79956L5.80887 8.76978C5.67387 8.86978 5.64489 9.01987 5.68289 9.11987C6.81889 12.2199 9.28088 14.6796 12.3799 15.8196C12.4829 15.8496 12.6309 15.8297 12.7319 15.6897L13.7019 14.3997C14.1539 13.7897 14.9249 13.52 15.6569 13.7L20.0799 14.8098C20.9139 15.0198 21.4999 15.7696 21.4999 16.6296V17.9998C21.4999 19.6598 20.1569 20.9998 18.4999 20.9998H16.2499C7.55188 20.9998 0.499878 13.9498 0.499878 5.24976V2.99976Z" fill="#CAFF33"/>
</svg>
