<svg width="52" height="52" viewBox="0 0 52 52" fill="none" xmlns="http://www.w3.org/2000/svg">
<path d="M52 25.9998C52 11.6404 40.3594 -0.000244141 26 -0.000244141C11.6406 -0.000244141 0 11.6404 0 25.9998C0 40.3592 11.6406 51.9998 26 51.9998C40.3594 51.9998 52 40.3592 52 25.9998Z" fill="#CAFF33"/>
<path d="M21.5499 35.75C30.6049 35.75 35.5579 28.2502 35.5579 21.7402C35.5579 21.5302 35.5539 21.3201 35.5439 21.1001C36.5079 20.4101 37.3389 19.54 37.9999 18.56C37.1029 18.95 36.1499 19.22 35.1739 19.33C36.2009 18.71 36.9709 17.7498 37.3389 16.6098C36.3729 17.1798 35.3159 17.5798 34.2129 17.7998C33.4709 17.0098 32.4889 16.49 31.4199 16.31C30.3499 16.14 29.2529 16.32 28.2979 16.83C27.3419 17.34 26.5819 18.1501 26.1339 19.1401C25.6859 20.1301 25.5749 21.23 25.8199 22.29C23.8619 22.19 21.9479 21.6798 20.1999 20.7998C18.4519 19.9098 16.9099 18.6699 15.6729 17.1499C15.0439 18.2299 14.8519 19.5202 15.1349 20.7402C15.4179 21.9602 16.1549 23.0202 17.1959 23.7202C16.4149 23.6902 15.6499 23.4798 14.9659 23.1098V23.1699C14.9649 24.2999 15.3579 25.41 16.0779 26.29C16.7989 27.17 17.8009 27.7702 18.9159 27.9902C18.1919 28.1902 17.4319 28.22 16.6949 28.08C17.0089 29.06 17.6219 29.9097 18.4459 30.5297C19.2699 31.1397 20.2649 31.48 21.2919 31.5C19.5479 32.87 17.3939 33.6098 15.1769 33.6098C14.7829 33.6098 14.3899 33.59 13.9999 33.54C16.2529 34.98 18.8739 35.75 21.5499 35.75Z" fill="#262626"/>
</svg>
